<?xml version="1.0" standalone="no"?><svg xmlns="http://www.w3.org/2000/svg" viewBox="0 0 1440 320"><path fill="#000b76" fill-opacity="1" d="M0,128L6.2,138.7C12.3,149,25,171,37,202.7C49.2,235,62,277,74,261.3C86.2,245,98,171,111,154.7C123.1,139,135,181,148,197.3C160,213,172,203,185,213.3C196.9,224,209,256,222,240C233.8,224,246,160,258,122.7C270.8,85,283,75,295,69.3C307.7,64,320,64,332,74.7C344.6,85,357,107,369,144C381.5,181,394,235,406,224C418.5,213,431,139,443,138.7C455.4,139,468,213,480,213.3C492.3,213,505,139,517,138.7C529.2,139,542,213,554,250.7C566.2,288,578,288,591,266.7C603.1,245,615,203,628,170.7C640,139,652,117,665,144C676.9,171,689,245,702,266.7C713.8,288,726,256,738,224C750.8,192,763,160,775,170.7C787.7,181,800,235,812,266.7C824.6,299,837,309,849,293.3C861.5,277,874,235,886,208C898.5,181,911,171,923,170.7C935.4,171,948,181,960,186.7C972.3,192,985,192,997,213.3C1009.2,235,1022,277,1034,245.3C1046.2,213,1058,107,1071,85.3C1083.1,64,1095,128,1108,154.7C1120,181,1132,171,1145,181.3C1156.9,192,1169,224,1182,240C1193.8,256,1206,256,1218,229.3C1230.8,203,1243,149,1255,149.3C1267.7,149,1280,203,1292,213.3C1304.6,224,1317,192,1329,181.3C1341.5,171,1354,181,1366,197.3C1378.5,213,1391,235,1403,245.3C1415.4,256,1428,256,1434,256L1440,256L1440,0L1433.8,0C1427.7,0,1415,0,1403,0C1390.8,0,1378,0,1366,0C1353.8,0,1342,0,1329,0C1316.9,0,1305,0,1292,0C1280,0,1268,0,1255,0C1243.1,0,1231,0,1218,0C1206.2,0,1194,0,1182,0C1169.2,0,1157,0,1145,0C1132.3,0,1120,0,1108,0C1095.4,0,1083,0,1071,0C1058.5,0,1046,0,1034,0C1021.5,0,1009,0,997,0C984.6,0,972,0,960,0C947.7,0,935,0,923,0C910.8,0,898,0,886,0C873.8,0,862,0,849,0C836.9,0,825,0,812,0C800,0,788,0,775,0C763.1,0,751,0,738,0C726.2,0,714,0,702,0C689.2,0,677,0,665,0C652.3,0,640,0,628,0C615.4,0,603,0,591,0C578.5,0,566,0,554,0C541.5,0,529,0,517,0C504.6,0,492,0,480,0C467.7,0,455,0,443,0C430.8,0,418,0,406,0C393.8,0,382,0,369,0C356.9,0,345,0,332,0C320,0,308,0,295,0C283.1,0,271,0,258,0C246.2,0,234,0,222,0C209.2,0,197,0,185,0C172.3,0,160,0,148,0C135.4,0,123,0,111,0C98.5,0,86,0,74,0C61.5,0,49,0,37,0C24.6,0,12,0,6,0L0,0Z"></path></svg>