<?xml version="1.0" standalone="no"?><svg xmlns="http://www.w3.org/2000/svg" viewBox="0 0 1440 320"><path fill="#000b76" fill-opacity="1" d="M0,160L6.2,149.3C12.3,139,25,117,37,106.7C49.2,96,62,96,74,122.7C86.2,149,98,203,111,229.3C123.1,256,135,256,148,218.7C160,181,172,107,185,85.3C196.9,64,209,96,222,128C233.8,160,246,192,258,208C270.8,224,283,224,295,202.7C307.7,181,320,139,332,144C344.6,149,357,203,369,186.7C381.5,171,394,85,406,48C418.5,11,431,21,443,58.7C455.4,96,468,160,480,186.7C492.3,213,505,203,517,170.7C529.2,139,542,85,554,69.3C566.2,53,578,75,591,96C603.1,117,615,139,628,160C640,181,652,203,665,197.3C676.9,192,689,160,702,165.3C713.8,171,726,213,738,197.3C750.8,181,763,107,775,101.3C787.7,96,800,160,812,186.7C824.6,213,837,203,849,208C861.5,213,874,235,886,240C898.5,245,911,235,923,240C935.4,245,948,267,960,266.7C972.3,267,985,245,997,245.3C1009.2,245,1022,267,1034,234.7C1046.2,203,1058,117,1071,117.3C1083.1,117,1095,203,1108,213.3C1120,224,1132,160,1145,133.3C1156.9,107,1169,117,1182,138.7C1193.8,160,1206,192,1218,213.3C1230.8,235,1243,245,1255,245.3C1267.7,245,1280,235,1292,224C1304.6,213,1317,203,1329,181.3C1341.5,160,1354,128,1366,106.7C1378.5,85,1391,75,1403,85.3C1415.4,96,1428,128,1434,144L1440,160L1440,320L1433.8,320C1427.7,320,1415,320,1403,320C1390.8,320,1378,320,1366,320C1353.8,320,1342,320,1329,320C1316.9,320,1305,320,1292,320C1280,320,1268,320,1255,320C1243.1,320,1231,320,1218,320C1206.2,320,1194,320,1182,320C1169.2,320,1157,320,1145,320C1132.3,320,1120,320,1108,320C1095.4,320,1083,320,1071,320C1058.5,320,1046,320,1034,320C1021.5,320,1009,320,997,320C984.6,320,972,320,960,320C947.7,320,935,320,923,320C910.8,320,898,320,886,320C873.8,320,862,320,849,320C836.9,320,825,320,812,320C800,320,788,320,775,320C763.1,320,751,320,738,320C726.2,320,714,320,702,320C689.2,320,677,320,665,320C652.3,320,640,320,628,320C615.4,320,603,320,591,320C578.5,320,566,320,554,320C541.5,320,529,320,517,320C504.6,320,492,320,480,320C467.7,320,455,320,443,320C430.8,320,418,320,406,320C393.8,320,382,320,369,320C356.9,320,345,320,332,320C320,320,308,320,295,320C283.1,320,271,320,258,320C246.2,320,234,320,222,320C209.2,320,197,320,185,320C172.3,320,160,320,148,320C135.4,320,123,320,111,320C98.5,320,86,320,74,320C61.5,320,49,320,37,320C24.6,320,12,320,6,320L0,320Z"></path></svg>