<?xml version="1.0" standalone="no"?><svg xmlns="http://www.w3.org/2000/svg" viewBox="0 0 1440 320"><path fill="#ffffcc" fill-opacity="1" d="M0,32L8,32C16,32,32,32,48,42.7C64,53,80,75,96,69.3C112,64,128,32,144,48C160,64,176,128,192,138.7C208,149,224,107,240,117.3C256,128,272,192,288,224C304,256,320,256,336,213.3C352,171,368,85,384,96C400,107,416,213,432,229.3C448,245,464,171,480,160C496,149,512,203,528,224C544,245,560,235,576,229.3C592,224,608,224,624,197.3C640,171,656,117,672,96C688,75,704,85,720,96C736,107,752,117,768,122.7C784,128,800,128,816,138.7C832,149,848,171,864,170.7C880,171,896,149,912,170.7C928,192,944,256,960,245.3C976,235,992,149,1008,117.3C1024,85,1040,107,1056,138.7C1072,171,1088,213,1104,202.7C1120,192,1136,128,1152,96C1168,64,1184,64,1200,64C1216,64,1232,64,1248,80C1264,96,1280,128,1296,133.3C1312,139,1328,117,1344,133.3C1360,149,1376,203,1392,218.7C1408,235,1424,213,1432,202.7L1440,192L1440,0L1432,0C1424,0,1408,0,1392,0C1376,0,1360,0,1344,0C1328,0,1312,0,1296,0C1280,0,1264,0,1248,0C1232,0,1216,0,1200,0C1184,0,1168,0,1152,0C1136,0,1120,0,1104,0C1088,0,1072,0,1056,0C1040,0,1024,0,1008,0C992,0,976,0,960,0C944,0,928,0,912,0C896,0,880,0,864,0C848,0,832,0,816,0C800,0,784,0,768,0C752,0,736,0,720,0C704,0,688,0,672,0C656,0,640,0,624,0C608,0,592,0,576,0C560,0,544,0,528,0C512,0,496,0,480,0C464,0,448,0,432,0C416,0,400,0,384,0C368,0,352,0,336,0C320,0,304,0,288,0C272,0,256,0,240,0C224,0,208,0,192,0C176,0,160,0,144,0C128,0,112,0,96,0C80,0,64,0,48,0C32,0,16,0,8,0L0,0Z"></path></svg>